<svg width="80" height="24" viewBox="0 0 80 24" fill="none" xmlns="http://www.w3.org/2000/svg">
<path d="M18.64 19L13.56 5H15.34L19.68 16.95L24.03 5H25.8L20.72 19H18.64ZM34.447 9H36.127V19H34.447L34.377 17.31C34.0637 17.89 33.6304 18.36 33.077 18.72C32.5304 19.08 31.877 19.26 31.117 19.26C30.3837 19.26 29.697 19.1233 29.057 18.85C28.417 18.57 27.8504 18.1867 27.357 17.7C26.8704 17.2067 26.4904 16.64 26.217 16C25.9437 15.36 25.807 14.67 25.807 13.93C25.807 13.2167 25.9404 12.5433 26.207 11.91C26.4737 11.2767 26.8437 10.7233 27.317 10.25C27.797 9.77 28.3504 9.39667 28.977 9.13C29.6037 8.85667 30.277 8.72 30.997 8.72C31.7837 8.72 32.4737 8.90667 33.067 9.28C33.6604 9.64667 34.1404 10.1233 34.507 10.71L34.447 9ZM31.087 17.63C31.747 17.63 32.317 17.47 32.797 17.15C33.2837 16.8233 33.657 16.3833 33.917 15.83C34.1837 15.2767 34.317 14.6667 34.317 14C34.317 13.32 34.1837 12.7067 33.917 12.16C33.6504 11.6067 33.2737 11.17 32.787 10.85C32.307 10.5233 31.7404 10.36 31.087 10.36C30.427 10.36 29.827 10.5233 29.287 10.85C28.747 11.1767 28.317 11.6167 27.997 12.17C27.6837 12.7167 27.527 13.3267 27.527 14C27.527 14.6733 27.6904 15.2867 28.017 15.84C28.3437 16.3867 28.777 16.8233 29.317 17.15C29.857 17.47 30.447 17.63 31.087 17.63ZM46.9658 12.78V19H45.2858V13.15C45.2858 12.6433 45.1624 12.1833 44.9158 11.77C44.6691 11.3567 44.3391 11.03 43.9258 10.79C43.5124 10.5433 43.0524 10.42 42.5458 10.42C42.0458 10.42 41.5858 10.5433 41.1658 10.79C40.7524 11.03 40.4224 11.3567 40.1758 11.77C39.9291 12.1833 39.8058 12.6433 39.8058 13.15V19H38.1258V9H39.8058V10.25C40.1591 9.78333 40.6058 9.41333 41.1458 9.14C41.6858 8.86 42.2724 8.72 42.9058 8.72C43.6524 8.72 44.3324 8.90333 44.9458 9.27C45.5658 9.63 46.0558 10.1167 46.4158 10.73C46.7824 11.3433 46.9658 12.0267 46.9658 12.78ZM56.8203 4H58.5003V19H56.8203V17.3C56.4803 17.8867 56.0236 18.36 55.4503 18.72C54.877 19.08 54.2036 19.26 53.4303 19.26C52.7036 19.26 52.0236 19.1233 51.3903 18.85C50.757 18.5767 50.197 18.2 49.7103 17.72C49.2303 17.2333 48.8536 16.6733 48.5803 16.04C48.307 15.4067 48.1703 14.7267 48.1703 14C48.1703 13.2733 48.307 12.5933 48.5803 11.96C48.8536 11.32 49.2303 10.76 49.7103 10.28C50.197 9.79333 50.757 9.41333 51.3903 9.14C52.0236 8.86667 52.7036 8.73 53.4303 8.73C54.2036 8.73 54.877 8.91 55.4503 9.27C56.0236 9.63 56.4803 10.1033 56.8203 10.69V4ZM53.4503 17.63C54.1103 17.63 54.6803 17.47 55.1603 17.15C55.647 16.8233 56.0203 16.3833 56.2803 15.83C56.547 15.2767 56.6803 14.6667 56.6803 14C56.6803 13.32 56.547 12.7067 56.2803 12.16C56.0136 11.6067 55.637 11.17 55.1503 10.85C54.6703 10.5233 54.1036 10.36 53.4503 10.36C52.7903 10.36 52.1903 10.5233 51.6503 10.85C51.117 11.1767 50.6903 11.6167 50.3703 12.17C50.0503 12.7167 49.8903 13.3267 49.8903 14C49.8903 14.6733 50.0536 15.2867 50.3803 15.84C50.707 16.3867 51.1403 16.8233 51.6803 17.15C52.2203 17.47 52.8103 17.63 53.4503 17.63ZM68.8416 9H70.5216V19H68.8416L68.7716 17.31C68.4582 17.89 68.0249 18.36 67.4716 18.72C66.9249 19.08 66.2716 19.26 65.5116 19.26C64.7782 19.26 64.0916 19.1233 63.4516 18.85C62.8116 18.57 62.2449 18.1867 61.7516 17.7C61.2649 17.2067 60.8849 16.64 60.6116 16C60.3382 15.36 60.2016 14.67 60.2016 13.93C60.2016 13.2167 60.3349 12.5433 60.6016 11.91C60.8682 11.2767 61.2382 10.7233 61.7116 10.25C62.1916 9.77 62.7449 9.39667 63.3716 9.13C63.9982 8.85667 64.6716 8.72 65.3916 8.72C66.1782 8.72 66.8682 8.90667 67.4616 9.28C68.0549 9.64667 68.5349 10.1233 68.9016 10.71L68.8416 9ZM65.4816 17.63C66.1416 17.63 66.7116 17.47 67.1916 17.15C67.6782 16.8233 68.0516 16.3833 68.3116 15.83C68.5782 15.2767 68.7116 14.6667 68.7116 14C68.7116 13.32 68.5782 12.7067 68.3116 12.16C68.0449 11.6067 67.6682 11.17 67.1816 10.85C66.7016 10.5233 66.1349 10.36 65.4816 10.36C64.8216 10.36 64.2216 10.5233 63.6816 10.85C63.1416 11.1767 62.7116 11.6167 62.3916 12.17C62.0782 12.7167 61.9216 13.3267 61.9216 14C61.9216 14.6733 62.0849 15.2867 62.4116 15.84C62.7382 16.3867 63.1716 16.8233 63.7116 17.15C64.2516 17.47 64.8416 17.63 65.4816 17.63ZM72.6375 19V4H74.3175V19H72.6375ZM77.2295 19.26C76.9762 19.26 76.7595 19.17 76.5795 18.99C76.4062 18.81 76.3195 18.59 76.3195 18.33C76.3195 18.0833 76.4062 17.87 76.5795 17.69C76.7595 17.51 76.9762 17.42 77.2295 17.42C77.4895 17.42 77.7095 17.51 77.8895 17.69C78.0695 17.87 78.1595 18.0833 78.1595 18.33C78.1595 18.59 78.0695 18.81 77.8895 18.99C77.7095 19.17 77.4895 19.26 77.2295 19.26Z" fill="white"/>
<path d="M6 19L1 12.7776L6 2L11 12.7776L6 19Z" fill="#B8FD03" stroke="white"/>
</svg>
